# xmcd CD database file
#
# Track frame offsets:
#	150
#	15600
#	27267
#	41337
#	54825
#	69900
#	90812
#	111150
#	131525
#	144800
#	155872
#
# Disc length: 2329 seconds
#
# Revision: 2
# Processed by: cddbd v1.5.2PL0 Copyright (c) Steve Scherf et al.
# Submitted via: CDex 1.51
#
DISCID=7d09170b
DTITLE=Rory Block - Mama's Blues
DYEAR=1991
DGENRE=Blues
TTITLE0=Terraplane Blues
TTITLE1=Bye Bye Blues
TTITLE2=Big Road Blues
TTITLE3=Do Your Duty
TTITLE4=The Spirit Returns
TTITLE5=Got To Shine
TTITLE6=Mama's Blues
TTITLE7=Ain't No Sunshine
TTITLE8=Hawkins Blues
TTITLE9=Weepin' Willow Blues
TTITLE10=Sing Good News
EXTD=YEAR: 1991
EXTT0=
EXTT1=
EXTT2=
EXTT3=
EXTT4=
EXTT5=
EXTT6=
EXTT7=
EXTT8=
EXTT9=
EXTT10=
PLAYORDER=
